<svg xmlns="http://www.w3.org/2000/svg" width="512" height="512" viewBox="0 0 512 512"><g fill="#008cdb"><path d="M223.983 291.35c1.283-5.229 3.339-10.737 5.55-16.667l.873-2.343c1.126-3.034 2.441-5.962 3.839-9.062 6.784-15.048 15.212-33.777 5.484-78.715-1.866-8.675-6.389-13.723-13.789-15.417-16.24-3.726-39.016 8.478-43.934 12.827.041.986.124 2.235.206 3.659.601 10.164 1.727 29.092-1.315 50.832-2.17 15.524 2.574 30.662 13.008 41.558 8.206 8.558 19.002 13.295 30.078 13.328zm-11.487-112.172c.346-2.59 3.47-4.144 8.346-4.144 1.077 0 2.188.082 3.322.238 5.247.731 10.673 3.216 10.164 6.957-.403 2.827-4.885 7.03-10.262 7.03-.469 0-.946-.041-1.415-.108-3.108-.427-6.25-2.384-8.412-5.236-.757-1.013-1.99-2.97-1.743-4.737z"/><path d="M203.829 83.952c-20.499-6.685-71.503-19.85-102.535 2.146-19.069 13.526-27.818 38.679-26.009 74.784.567 11.412 7.795 52.122 20.146 92.603 14.283 46.786 30.481 76.289 44.435 80.943 2.138.715 8.659 2.886 18.09-8.453 13.337-16.034 25.86-29.684 31.616-35.859a58.615 58.615 0 0 1-4.177-3.947c-12.942-13.5-18.846-32.224-16.166-51.34 2.87-20.574 1.801-38.738 1.225-48.497-.165-2.673-.279-4.605-.271-5.979-.083-3.561-.88-61.588 32.75-95.546.288-.295.601-.568.896-.855z"/><path d="M373.362 293.521c-.855-1.218-1.974-2.624-3.141-4.07-3.766-4.72-8.938-11.183-12.926-20.86-.617-1.48-2.557-4.958-4.811-8.996-12.268-21.995-37.782-67.763-21.288-91.344 7.573-10.839 22.538-15.18 44.533-12.942-2.927-8.692-10.254-24.8-23.788-40.793-15.698-18.559-43.53-40.824-86.929-41.541-22.053-.353-40.102 6.397-53.669 20.089-21.56 21.74-27.324 56.102-28.845 74.488a90.814 90.814 0 0 1 3.248-1.727c5.468-2.771 16.429-7.606 28.401-8.84 19.981-2.081 33.162 6.841 37.1 25.086 10.542 48.729.839 70.296-6.257 86.042-1.315 2.92-2.549 5.674-3.536 8.33l-.879 2.359c-2.089 5.607-4.021 10.779-5.139 15.36a15.083 15.083 0 0 1 3.782-.485c3.461 0 6.291 1.166 8.148 1.94 5.954 2.466 10.928 8.428 12.951 15.54.337 1.159.576 2.319.732 3.454.181.592.279 1.226.254 1.874-1.365 48.916.568 93.22 4.49 103.046 6.084 15.22 15.318 28.531 41.417 22.94 25.169-5.394 34.107-14.455 38.301-38.777 3.19-18.418 9.439-70.541 10.311-81.642-1.084-22.166 10.88-26.607 17.54-28.531z"/><path d="M387.069 323.903c10.821-.518 22.218-2.886 29.035-6.044 7.917-3.684 13.509-7.777 16.773-10.837a3.43 3.43 0 0 1-.263.058c-24.208 4.999-41.359 4.317-50.972-2.031a20.99 20.99 0 0 1-1.645-1.209c-.814.288-1.645.519-2.5.757-5.444 1.529-10.583 2.977-9.917 16.799 1.441 1.167 7.517 3.058 19.489 2.507zM348.843 68.511c-13.461-.288-25.49 1.405-34.288 3.23 20.449 9.021 35.422 22.391 45.693 34.346 18.764 21.848 27.973 45.997 28.738 54.056.107 1.242.025 2.285-.197 3.166.296 8.411-.781 15.549-1.842 22.447-.863 5.592-1.76 11.38-1.974 18.131-.206 6.373.608 13.14 1.472 20.318 2.105 17.488 4.457 37.207-7.605 57.147.197.246.386.493.592.739.485.608.962 1.2 1.414 1.784 46.712-73.51 62.845-158.712 48.193-177.436-19.111-24.411-46.089-37.172-80.196-37.928zM211.567 340.711c15.368 0 27.71-6.373 36.672-18.921 1.793-2.491 1.233-5.698.765-7.392-1.028-3.569-3.561-6.817-6.151-7.894-1.414-.593-2.59-1.045-3.634-1.045-1.48 0-3.223 1.11-5.18 3.306-2.59 2.894-4.465 5.263-6.109 7.359-7.194 9.127-10.483 12.227-31.813 16.618-4.408.912-6.94 1.825-8.371 2.5 1.702 1.159 4.621 2.564 7.86 3.378 5.534 1.383 10.904 2.091 15.961 2.091z"/><path d="M375.303 183.956c.847-5.519 1.653-10.812 1.744-16.651-23.27-2.887-32.538 2.482-36.196 7.695-12.26 17.54 11.693 60.511 21.93 78.855 2.631 4.711 4.522 8.124 5.403 10.245a60.167 60.167 0 0 0 3.108 6.405c7.046-14.973 5.221-30.151 3.454-44.896-.872-7.293-1.785-14.842-1.546-22.103.228-7.456 1.174-13.607 2.103-19.55zm-11.725-3.412c-1.135 1.191-3.528 3.263-6.776 3.716a9.397 9.397 0 0 1-1.274.082c-4.81 0-8.954-3.75-9.292-6.176-.402-2.935 4.391-5.163 9.325-5.854a23.291 23.291 0 0 1 3.182-.223c4.267 0 7.096 1.266 7.368 3.306.188 1.316-.806 3.331-2.533 5.149z"/><path d="M459.091 297.689c-2.45-7.433-8.881-12.612-17.193-13.854-3.923-.584-8.412-.337-13.724.757-9.258 1.915-16.14 2.64-21.14 2.778 18.92-31.952 34.312-68.395 43.168-102.699 14.324-55.462 6.668-80.729-2.277-92.159-23.682-30.25-58.216-46.499-99.88-47-22.233-.271-41.754 4.119-51.925 7.277-9.489-1.678-19.676-2.606-30.375-2.779-20.022-.329-37.75 4.045-52.879 13.033-8.387-2.837-21.831-6.825-37.363-9.383-36.516-5.994-65.953-1.323-87.488 13.888-26.075 18.419-38.162 50.413-35.925 95.111.708 14.185 8.642 57.352 21.14 98.301 7.187 23.532 14.842 43.078 22.769 58.084 11.232 21.297 23.253 33.828 36.755 38.334 7.564 2.516 21.312 4.283 35.76-7.763 1.842 2.22 4.284 4.432 7.532 6.479 4.111 2.6 9.152 4.722 14.184 5.979 18.131 4.54 35.119 3.404 49.615-2.951.083 2.573.157 5.04.214 7.162.091 3.454.189 6.832.321 9.99.855 21.395 2.311 38.021 6.619 49.647.239.642.56 1.62.897 2.648 2.146 6.586 5.739 17.611 14.891 26.245 9.472 8.938 20.935 11.686 31.427 11.686 5.263 0 10.295-.691 14.694-1.628 15.705-3.371 33.531-8.504 46.433-26.872 12.194-17.358 18.123-43.514 19.2-84.726.14-1.168.271-2.278.395-3.339.083-.714.165-1.447.247-2.179l2.87.255.748.05c15.985.731 35.555-2.664 47.56-8.239 9.476-4.407 39.892-20.458 32.73-42.133zm-38.029 30.86c-9.521 4.416-24.708 7.212-37.865 7.212-6.323 0-12.162-.642-16.692-2.056-2.146 19.751-6.718 56.562-9.374 71.997-4.975 28.853-17.843 41.943-47.444 48.29-5.049 1.086-9.637 1.571-13.797 1.571-28.376 0-37.356-22.464-41.031-31.657-4.489-11.224-6.052-48.069-5.73-85.457-10.196 9.217-22.966 14.044-37.561 14.044-6.019 0-12.35-.822-18.822-2.442-1.867-.468-18.278-4.875-18.056-15.359.197-9.604 13.896-12.425 19.06-13.484 18.122-3.734 19.29-5.222 24.922-12.376 1.143-1.447 2.484-3.148 4.12-5.09-.017-.205-.05-.411-.058-.624-8.14-.215-16.075-2.385-23.311-6.266-4.893 5.213-18.172 19.545-32.397 36.664-8.567 10.285-16.798 13.312-23.508 13.312-2.747 0-5.221-.501-7.376-1.218-18.401-6.142-35.883-35.974-51.983-88.688-12.218-40.043-19.956-81.855-20.639-95.455-2.022-40.398 8.404-68.996 30.983-84.998 18.928-13.41 45.446-17.48 78.821-12.103 19.307 3.108 35.078 8.526 41.195 10.805 14.053-9.588 31.032-14.283 50.692-13.979 10.722.181 20.556 1.554 29.585 3.799 4.284-1.875 26.395-8.543 52.566-8.289 38.071.411 69.522 15.098 90.959 42.479 5.312 6.792 7.894 17.908 7.654 33.047-.213 13.781-2.803 30.694-7.515 48.907-9.924 38.44-28.335 79.652-50.725 113.744 3.396 2.491 13.707 6.61 42.494.664 9.695-2.006 15.533-.237 17.35 5.247 3.495 10.591-15.812 22.784-26.517 27.759z"/></g></svg>